<svg xmlns="http://www.w3.org/2000/svg" version="1.1" xmlns:xlink="http://www.w3.org/1999/xlink" xmlns:svgjs="http://svgjs.dev/svgjs" width="2000" height="1500" viewBox="0 0 2000 1500"><rect width="2000" height="1500" fill="#282828"></rect><g transform="matrix(0.75,0,0,0.75,249.1490346215927,162.99373748054427)"><svg viewBox="0 0 396 310" data-background-color="#282828" preserveAspectRatio="xMidYMid meet" height="1565" width="2000" xmlns="http://www.w3.org/2000/svg" xmlns:xlink="http://www.w3.org/1999/xlink"><g id="tight-bounds" transform="matrix(1,0,0,1,0.255389214791677,0.034667843264145404)"><svg viewBox="0 0 395.5199999999999 309.9294830604664" height="309.9294830604664" width="395.5199999999999"><g><svg viewBox="0 0 395.52000000000004 309.92948306046645" height="309.9294830604664" width="395.5199999999999"><g transform="matrix(1,0,0,1,0,176.8959061708632)"><svg viewBox="0 0 395.52000000000004 133.03357688960324" height="133.03357688960324" width="395.52000000000004"><g id="textblocktransform"><svg viewBox="0 0 395.52000000000004 133.03357688960324" height="133.03357688960324" width="395.52000000000004" id="textblock"><g><svg viewBox="0 0 395.52000000000004 133.03357688960324" height="133.03357688960324" width="395.52000000000004"><g transform="matrix(1,0,0,1,0,0)"><svg width="395.52000000000004" viewBox="0.6507225083794153 -29.55468719074782 164.56321701703078 55.35551687666414" height="133.03357688960324" data-palette-color="#e94443"><path d="M39.982-13.318v0c1.161-0.33 1.784-0.344 1.87-0.043v0c0.093 0.327-0.413 0.755-1.517 1.284-1.098 0.527-2.057 0.907-2.878 1.14v0c0.105 9.174-0.029 14.92-0.403 17.237v0c-0.971 5.876-2.562 10.324-4.774 13.343-2.206 3.018-4.713 4.926-7.522 5.725v0c-2.937 0.835-5.52 0.463-7.75-1.114v0c-0.845-0.585-1.366-1.223-1.563-1.916v0c-0.061-0.336-0.013-0.547 0.142-0.633v0c0.263-0.075 0.648 0.086 1.156 0.482v0c0.773 0.598 1.429 1.053 1.968 1.364 0.533 0.313 1.264 0.57 2.194 0.77 0.93 0.2 1.841 0.173 2.732-0.08v0c2.347-0.667 4.362-2.113 6.045-4.338 1.687-2.233 2.931-4.818 3.732-7.755 0.807-2.939 1.36-5.834 1.659-8.685 0.292-2.848 0.372-5.519 0.239-8.01v0c-0.625 3.068-2.613 6.059-5.964 8.972-3.345 2.912-6.979 4.926-10.904 6.041v0c-4.162 1.183-7.804 0.925-10.928-0.772-3.125-1.704-5.188-4.319-6.19-7.847v0c-0.592-2.084-0.802-4.201-0.63-6.349 0.177-2.157 0.678-4.199 1.503-6.124 0.823-1.932 1.909-3.793 3.257-5.584 1.34-1.795 2.871-3.408 4.592-4.839 1.714-1.43 3.565-2.697 5.552-3.803 1.989-1.099 4.022-1.944 6.1-2.534v0c0.462-0.131 0.928-0.246 1.399-0.346v0c2.417-0.541 4.461-0.727 6.131-0.557 1.668 0.164 2.79 0.503 3.367 1.019v0c0.292 0.271 0.476 0.54 0.552 0.809v0c0.036 0.128 0.044 0.275 0.021 0.441-0.027 0.174-0.071 0.311-0.132 0.412-0.053 0.105-0.14 0.265-0.259 0.479-0.119 0.214-0.197 0.378-0.234 0.493v0c-0.064 0.164-0.131 0.37-0.199 0.618-0.073 0.256-0.139 0.5-0.197 0.732-0.061 0.225-0.129 0.449-0.205 0.671-0.084 0.218-0.167 0.401-0.249 0.549-0.083 0.148-0.172 0.236-0.268 0.264v0c-0.071 0.02-0.133 0.02-0.187 0.001-0.06-0.017-0.116-0.054-0.166-0.109v0l-0.016-0.058c-0.066-0.231-0.05-0.616 0.045-1.156 0.094-0.547 0.095-0.983 0.002-1.311v0c-0.142-0.5-0.512-0.984-1.109-1.452v0c-1.431-1.132-3.804-1.386-7.12-0.762v0c-0.407 0.081-0.841 0.187-1.303 0.318v0c-0.827 0.235-1.695 0.534-2.604 0.896-0.914 0.371-1.901 0.859-2.962 1.465-1.057 0.598-2.097 1.268-3.119 2.01-1.018 0.733-2.027 1.609-3.027 2.627-0.995 1.01-1.886 2.082-2.674 3.214-0.779 1.136-1.476 2.44-2.09 3.91-0.619 1.479-1.061 3.008-1.327 4.588v0c-0.534 3.146-0.435 6.004 0.296 8.575v0c0.92 3.238 2.858 5.533 5.813 6.883 2.957 1.357 5.952 1.604 8.985 0.742v0c4.919-1.398 8.641-3.589 11.168-6.573 2.521-2.983 4.207-6.986 5.06-12.011v0c-2.755 0.963-7.22 2.322-13.396 4.078v0c-0.558 0.159-1.059 0.114-1.504-0.134-0.445-0.248-0.728-0.587-0.85-1.017v0c-0.122-0.43 0.107-0.904 0.687-1.422 0.585-0.527 1.124-0.86 1.618-1v0c0.032-0.009 0.064-0.018 0.097-0.028v0c0.199-0.057 0.333-0.022 0.403 0.104v0c0.009 0.032 0.002 0.069-0.02 0.11v0c-0.11 0.246-0.169 0.443-0.176 0.59-0.015 0.143 0.071 0.226 0.258 0.249v0c0.359-0.102 1.42-0.379 3.184-0.832 1.765-0.446 3.847-1 6.244-1.66 2.396-0.667 4.369-1.221 5.921-1.662v0c1.058-0.301 1.866-0.53 2.424-0.689zM56.628-16.374v0c-0.219 0.407-0.532 0.821-0.938 1.241-0.413 0.421-0.738 0.648-0.975 0.681v0c-0.205 0.029-0.321-0.06-0.35-0.264v0c-0.018-0.132 0.077-0.63 0.287-1.494 0.21-0.857 0.294-1.441 0.25-1.751v0c-0.033-0.238-0.135-0.345-0.307-0.321v0c-1.189 0.166-2.689 2.246-4.502 6.241-1.82 3.996-3.047 7.822-3.682 11.477v0c-0.166 0.306-0.451 0.625-0.856 0.958-0.398 0.331-0.752 0.519-1.063 0.562v0c-0.205 0.029-0.369-0.036-0.492-0.195v0c-0.128-0.918-0.135-1.765-0.02-2.541 0.121-0.777 0.34-1.259 0.657-1.444v0c0.36-2.924 0.595-5.104 0.705-6.54v0l0.207-2.21c0.04-0.248 0.038-0.527-0.006-0.837v0c-0.023-0.165-0.08-0.312-0.172-0.44-0.085-0.129-0.137-0.26-0.156-0.393v0c-0.029-0.205-0.022-0.397 0.021-0.578v0c0.25-2.216 0.602-3.752 1.054-4.61 0.452-0.864 1.219-1.371 2.302-1.522v0c0.409-0.057 0.666 0.045 0.77 0.307v0c-0.018 0.11-0.18 0.739-0.485 1.885-0.31 1.154-0.594 2.233-0.851 3.238-0.257 1.005-0.521 2.274-0.793 3.806-0.272 1.525-0.462 2.918-0.569 4.179v0c0.815-2.362 2.182-5.261 4.099-8.699 1.911-3.436 3.629-5.261 5.155-5.473v0c0.819-0.114 1.299 0.337 1.44 1.354v0c0.147 1.056-0.096 2.184-0.73 3.383zM70.055-17.579c0.66 0.055 1 0.219 1.022 0.491 0.021 0.273-0.217 0.559-0.716 0.859-0.492 0.293-0.944 0.455-1.356 0.487v0c0.313 4.001-0.463 7.506-2.328 10.513-1.865 3.001-3.821 4.582-5.868 4.742v0c-1.987 0.155-3.093-1.206-3.319-4.084v0c-0.061-0.784-0.053-1.574 0.026-2.369v0c0.097-0.904 0.313-2.074 0.648-3.511 0.336-1.437 0.798-3.005 1.388-4.703 0.59-1.698 1.361-3.162 2.315-4.394 0.954-1.225 1.963-1.879 3.026-1.961v0l0.359-0.028c-0.037-0.479 0.067-0.901 0.312-1.269 0.246-0.36 0.608-0.559 1.087-0.596v0c0.481-0.004 0.988 0.963 1.521 2.9 0.533 1.938 1.16 2.912 1.883 2.923zM67.538-16.039v0c-0.319-0.149-0.742-0.728-1.27-1.736-0.527-1.009-0.877-1.506-1.049-1.493v0c-1.057 0.083-2.164 1.744-3.322 4.984-1.158 3.24-1.839 5.781-2.042 7.622v0c-0.072 0.795-0.082 1.518-0.031 2.169v0c0.131 1.675 0.675 2.475 1.632 2.401v0c1.369-0.107 2.792-1.619 4.269-4.537 1.47-2.923 2.074-6.06 1.813-9.41zM83.647-17.765c0.655 0.096 0.985 0.281 0.989 0.554 0.004 0.273-0.251 0.544-0.767 0.813-0.509 0.262-0.97 0.396-1.384 0.402v0c0.065 4.013-0.926 7.463-2.972 10.35-2.047 2.88-4.097 4.337-6.15 4.37v0c-1.993 0.032-3.013-1.395-3.06-4.281v0c-0.013-0.787 0.044-1.574 0.172-2.363v0c0.152-0.896 0.44-2.051 0.864-3.465 0.424-1.414 0.982-2.95 1.675-4.607 0.693-1.658 1.554-3.072 2.582-4.243 1.028-1.163 2.075-1.754 3.142-1.771v0l0.359-0.006c-0.008-0.48 0.122-0.895 0.39-1.246 0.268-0.344 0.642-0.52 1.122-0.528v0c0.48 0.026 0.927 1.022 1.339 2.988 0.412 1.967 0.978 2.978 1.699 3.033zM81.039-16.382v0c-0.309-0.168-0.696-0.772-1.16-1.812-0.464-1.039-0.782-1.558-0.955-1.555v0c-1.06 0.017-2.268 1.607-3.623 4.77-1.356 3.162-2.192 5.656-2.509 7.481v0c-0.121 0.789-0.176 1.51-0.165 2.163v0c0.027 1.68 0.521 2.512 1.48 2.497v0c1.373-0.022 2.887-1.444 4.542-4.264 1.648-2.827 2.444-5.92 2.39-9.28zM100.601-19.804v0c-0.476 2.006-1.435 4.133-2.876 6.381-1.448 2.247-3.004 4.209-4.666 5.884-1.661 1.67-3.263 3.062-4.804 4.177-1.548 1.114-2.702 1.653-3.46 1.617v0c-0.2-0.01-0.296-0.101-0.288-0.274v0c0.011-0.24 0.052-0.401 0.123-0.485 0.071-0.083 0.151-0.156 0.241-0.219 0.09-0.062 0.205-0.16 0.344-0.294 0.146-0.133 0.29-0.41 0.43-0.83 0.14-0.42 0.287-0.981 0.441-1.681 0.153-0.694 0.315-1.717 0.486-3.07 0.164-1.347 0.306-2.929 0.427-4.745v0c0.029-0.613-0.052-1.08-0.244-1.404-0.192-0.316-0.267-0.92-0.224-1.812v0c0.08-1.678 0.299-2.836 0.656-3.473 0.357-0.637 1.052-0.931 2.084-0.882v0c0.479 0.023 0.795 0.195 0.947 0.516v0c-1.654 9.505-2.56 14.872-2.719 16.099v0c0.035-0.032 0.392-0.308 1.071-0.83 0.672-0.515 1.343-1.084 2.013-1.707 0.663-0.616 1.438-1.403 2.325-2.362 0.886-0.952 1.732-2.097 2.536-3.433 0.798-1.337 1.476-2.763 2.036-4.278v0c0.08-0.277 0.123-0.481 0.129-0.615v0c0.011-0.24-0.044-0.543-0.167-0.909-0.116-0.366-0.17-0.635-0.161-0.808v0c0.02-0.413 0.41-1.038 1.17-1.877 0.761-0.838 1.381-1.246 1.86-1.223v0c0.38 0.018 0.552 0.387 0.518 1.106v0c-0.02 0.413-0.096 0.89-0.228 1.431zM114.275-15.786v0c0.073 1.084 0.069 1.95-0.012 2.599v0c-0.093 0.748-0.431 1.354-1.014 1.818-0.575 0.459-1.283 0.75-2.124 0.874-0.848 0.116-1.601 0.176-2.26 0.181-0.652 0.006-1.27-0.028-1.852-0.1v0c-0.337-0.042-0.72-0.1-1.147-0.174-0.422-0.066-0.649-0.101-0.683-0.105v0c-1.482 2.717-2.324 4.893-2.528 6.527v0c-0.17 1.363 0.254 2.108 1.273 2.235v0c0.714 0.089 1.604-0.256 2.669-1.037 1.072-0.786 2.022-1.585 2.849-2.396 0.827-0.81 1.306-1.207 1.438-1.191v0c0.238 0.03 0.34 0.18 0.307 0.452v0c-0.119 0.953-1.22 2.155-3.303 3.608-2.082 1.446-3.649 2.104-4.701 1.973v0c-0.853-0.107-1.598-0.465-2.234-1.075-0.628-0.616-0.866-1.536-0.713-2.76v0c0.047-0.377 0.152-0.814 0.315-1.311v0c0.4-1.267 0.875-2.487 1.425-3.662 0.543-1.175 0.849-1.899 0.916-2.173v0c-0.493-0.196-0.714-0.499-0.662-0.909v0c0.047-0.377 0.358-0.53 0.934-0.458v0l0.357 0.045c1.698-2.516 2.676-3.966 2.932-4.35v0c1.178-1.687 3.114-2.362 5.806-2.026v0c1.158 0.145 1.828 1.283 2.012 3.415zM112.123-13.565v0c0.106-0.847 0.114-1.588 0.026-2.224-0.095-0.637-0.24-1.088-0.436-1.354-0.189-0.265-0.402-0.413-0.64-0.443v0c-0.681-0.085-1.58 0.548-2.696 1.9-1.122 1.345-1.975 2.552-2.559 3.621v0c0.066 0.008 0.335 0.059 0.808 0.151 0.472 0.093 0.88 0.16 1.224 0.204v0c1.396 0.174 2.42 0.148 3.074-0.08 0.647-0.235 1.047-0.827 1.199-1.775zM131.278-14.66v0c-2.395 2.573-4.726 5.498-6.995 8.776-2.268 3.277-3.598 5.91-3.988 7.899v0c-0.093 0.471-0.005 0.733 0.263 0.785v0c0.098 0.019 0.423-0.077 0.974-0.287 0.543-0.206 0.867-0.298 0.972-0.278v0c0.17 0.033 0.235 0.152 0.195 0.354v0c-0.08 0.406-0.485 0.771-1.214 1.096-0.731 0.332-1.401 0.438-2.01 0.319v0c-0.837-0.165-1.133-0.872-0.887-2.121v0c0.284-1.446 1.157-3.397 2.619-5.855 1.462-2.458 2.877-4.68 4.245-6.666 1.369-1.987 2.08-3.114 2.133-3.382v0c0.014-0.072 0.005-0.111-0.028-0.118v0c-0.137-0.027-0.492 0.168-1.063 0.586v0c-2.589 1.971-4.83 3.952-6.723 5.945-1.898 1.984-3.209 3.534-3.931 4.649-0.73 1.12-1.427 1.989-2.092 2.605-0.66 0.625-1.343 0.867-2.049 0.729v0c-0.307-0.06-0.428-0.261-0.361-0.601v0c0.059-0.301 0.21-0.621 0.454-0.961v0c1.372-2.176 2.729-4.444 4.069-6.803 1.334-2.36 2.788-5.003 4.361-7.927 1.574-2.925 2.84-5.237 3.8-6.938v0c0.164-0.28 0.276-0.574 0.336-0.881v0c0.026-0.131 0.034-0.258 0.025-0.383-0.016-0.125-0.017-0.224-0.003-0.296v0c0.026-0.131 0.121-0.34 0.286-0.626v0c1.195-2 2.132-3.294 2.811-3.881 0.671-0.581 1.563-0.763 2.676-0.544v0c0.438 0.086 0.661 0.286 0.666 0.6v0c-5.127 6.69-9.656 13.983-13.586 21.88v0c6.559-6.857 11.118-10.034 13.676-9.531v0c0.706 0.139 1.013 0.444 0.921 0.915v0c-0.059 0.301-0.243 0.615-0.552 0.941zM148.7-11.414v0c-0.186 0.274-0.824 1.166-1.913 2.677-1.097 1.516-2.005 2.797-2.722 3.843v0c-1.063 1.518-2.266 3.392-3.609 5.622-1.349 2.228-2.097 3.605-2.243 4.131v0c-0.028 0.103-0.007 0.164 0.063 0.184v0c0.263 0.073 1.046-0.157 2.349-0.689 1.302-0.532 2.153-0.743 2.551-0.633v0c0.263 0.073 0.372 0.193 0.326 0.36v0c-0.064 0.231-0.539 0.511-1.426 0.84-0.891 0.321-1.898 0.637-3.022 0.949-1.117 0.314-1.733 0.489-1.847 0.527v0c-0.286 0.135-0.721 0.382-1.304 0.739-0.575 0.353-1.095 0.634-1.562 0.844-0.473 0.208-0.857 0.271-1.152 0.19v0c-0.431-0.119-0.596-0.358-0.497-0.718v0c0.064-0.231 0.426-0.515 1.087-0.852 0.667-0.334 1.133-0.658 1.399-0.972v0c0.934-1.201 3.151-4.842 6.652-10.922v0c-2.195 1.883-4.969 3.9-8.323 6.05-3.355 2.15-5.678 3.047-6.97 2.69v0c-0.463-0.128-0.612-0.487-0.448-1.078v0c0.139-0.501 0.519-1.164 1.141-1.988v0c0.009-0.032 0.651-0.816 1.926-2.352 1.28-1.527 2.335-2.865 3.164-4.012 0.834-1.139 1.328-1.988 1.483-2.547v0c0.046-0.167 0.058-0.333 0.034-0.498-0.03-0.167-0.03-0.302-0.002-0.406v0c0.009-0.032 0.094-0.202 0.255-0.51v0c1.145-1.966 2.059-3.218 2.74-3.756 0.69-0.542 1.613-0.654 2.77-0.334v0c0.463 0.128 0.701 0.353 0.715 0.676v0c-6.664 8.664-10.06 13.227-10.187 13.689v0c-0.037 0.135-0.008 0.216 0.088 0.243v0c0.135 0.037 0.607-0.119 1.417-0.47v0c4.006-1.631 7.902-4.4 11.686-8.305v0c0.321-1.011 0.928-1.981 1.822-2.91 0.9-0.927 1.928-1.231 3.084-0.911v0c0.366 0.101 0.525 0.304 0.475 0.609zM143.31 7.098v0c-0.303 0.33-0.536 0.466-0.699 0.407v0c-0.289-0.104-0.542-0.415-0.759-0.932-0.214-0.509-0.227-1.024-0.04-1.545v0c0.174-0.483 1.001-1.57 2.482-3.262v0c0.193-0.221 0.417-0.36 0.671-0.418 0.258-0.049 0.421-0.118 0.489-0.206v0c6.753-7.814 12.401-14.843 16.945-21.087v0l0.491-0.153c0.296-0.113 0.648-0.206 1.056-0.278 0.406-0.066 0.723-0.059 0.949 0.022v0c0.326 0.117 0.402 0.418 0.228 0.901v0c-0.834 1.195-3.134 4.03-6.899 8.506-3.761 4.484-6.791 7.989-9.088 10.513v0c1.891-1.395 4.253-2.869 7.086-4.421 2.84-1.55 4.761-2.144 5.765-1.783v0c0.646 0.233 0.753 0.948 0.322 2.146v0l-0.122 0.339c-0.264 0.635-1.094 1.976-2.49 4.024v0c0.838-0.102 1.385-0.107 1.642-0.014v0c0.1 0.036 0.138 0.089 0.113 0.157v0c-0.056 0.157-0.347 0.325-0.873 0.505-0.517 0.175-1.014 0.269-1.493 0.28v0c-2.76 3.711-4.975 6.014-6.643 6.908v0c-0.626 0.32-1.786 0.661-3.481 1.021-1.7 0.352-2.709 0.47-3.03 0.355v0c-1.324-0.476-2.198-1.138-2.622-1.985zM156.248 1.095v0c-4.534 0.628-7.565 1.34-9.091 2.137v0c-0.334 0.319-0.747 0.737-1.238 1.255-0.497 0.515-0.827 0.85-0.989 1.004v0c0.458 1.15 1.091 1.87 1.9 2.162v0c1.324 0.476 2.914-0.063 4.771-1.62 1.848-1.552 3.398-3.198 4.647-4.938zM157.02 0.162v0c1.002-1.17 1.799-2.467 2.389-3.891v0c0.244-0.677 0.203-1.075-0.123-1.192v0c-1.066-0.384-4.852 1.973-11.357 7.071v0c2.51-0.889 5.54-1.552 9.091-1.988z" opacity="1" transform="matrix(1,0,0,1,0,0)" fill="#e94443" class="wordmark-text-0" data-fill-palette-color="primary" id="text-0"></path></svg></g></svg></g></svg></g></svg></g><g transform="matrix(1,0,0,1,75.54432000000003,0)"><svg viewBox="0 0 244.43135999999998 132.8557862259197" height="132.8557862259197" width="244.43135999999998"><g><svg xmlns="http://www.w3.org/2000/svg" xmlns:xlink="http://www.w3.org/1999/xlink" version="1.1" x="0" y="0" viewBox="5.455 23.832 90.271 49.06499999999999" enable-background="new 0 0 100 100" xml:space="preserve" height="132.8557862259197" width="244.43135999999998" class="icon-icon-0" data-fill-palette-color="accent" id="icon-0"><g fill="#e94443" data-fill-palette-color="accent"><path d="M5.455 23.832v49.065h28.882V23.832H5.455zM19.896 27.699c3.637 0 6.586 2.948 6.586 6.586 0 3.637-2.949 6.585-6.586 6.585-3.638 0-6.586-2.948-6.586-6.585C13.31 30.647 16.258 27.699 19.896 27.699zM19.896 64.557c-4.771 0-8.641-3.867-8.641-8.642 0-4.771 3.869-8.64 8.641-8.64 4.772 0 8.64 3.869 8.64 8.64C28.536 60.69 24.668 64.557 19.896 64.557z" fill="#e94443" data-fill-palette-color="accent"></path><circle cx="19.896" cy="55.917" r="4.2" fill="#e94443" data-fill-palette-color="accent"></circle></g><g fill="#e94443" data-fill-palette-color="accent"><path d="M66.844 23.832v49.065h28.882V23.832H66.844zM81.285 27.699c3.638 0 6.586 2.948 6.586 6.586 0 3.637-2.948 6.585-6.586 6.585-3.637 0-6.586-2.948-6.586-6.585C74.699 30.647 77.648 27.699 81.285 27.699zM81.285 64.557c-4.772 0-8.64-3.867-8.64-8.642 0-4.771 3.868-8.64 8.64-8.64 4.771 0 8.641 3.869 8.641 8.64C89.926 60.69 86.057 64.557 81.285 64.557z" fill="#e94443" data-fill-palette-color="accent"></path><circle cx="81.285" cy="55.917" r="4.2" fill="#e94443" data-fill-palette-color="accent"></circle></g><g fill="#e94443" data-fill-palette-color="accent"><path d="M50.55 42.321c-4.572 0-8.278 3.706-8.278 8.278 0 4.571 3.706 8.278 8.278 8.278s8.278-3.707 8.278-8.278C58.828 46.027 55.122 42.321 50.55 42.321zM50.55 57.789c-3.971 0-7.19-3.22-7.19-7.189 0-3.972 3.219-7.191 7.19-7.191 3.971 0 7.19 3.219 7.19 7.191C57.741 54.569 54.521 57.789 50.55 57.789z" fill="#e94443" data-fill-palette-color="accent"></path><circle cx="50.55" cy="50.599" r="4.3" fill="#e94443" data-fill-palette-color="accent"></circle></g><path d="M35.022 23.832v49.065h31.057V23.832H35.022zM36.563 28.368h27.829c0.373 0 0.675 0.302 0.675 0.675 0 0.372-0.302 0.674-0.675 0.674H36.563c-0.372 0-0.674-0.302-0.674-0.674C35.889 28.67 36.191 28.368 36.563 28.368zM60.772 37.246c0 1.469-1.19 2.659-2.659 2.659-1.469 0-2.659-1.19-2.659-2.659 0-1.468 1.19-2.659 2.659-2.659C59.582 34.587 60.772 35.777 60.772 37.246zM38.113 40.025h-1.571c-0.4 0-0.725-0.325-0.725-0.726s0.325-0.725 0.725-0.725h1.571c0.401 0 0.725 0.324 0.725 0.725S38.514 40.025 38.113 40.025zM38.113 37.487h-1.571c-0.4 0-0.725-0.325-0.725-0.725s0.325-0.725 0.725-0.725h1.571c0.401 0 0.725 0.325 0.725 0.725S38.514 37.487 38.113 37.487zM50.55 61.778c-6.174 0-11.178-5.005-11.178-11.179 0-6.174 5.004-11.179 11.178-11.179S61.728 44.426 61.728 50.6C61.728 56.773 56.724 61.778 50.55 61.778zM64.578 55.615h-1.57c-0.401 0-0.726-0.325-0.726-0.727 0-0.4 0.325-0.724 0.726-0.724h1.57c0.4 0 0.726 0.324 0.726 0.724C65.304 55.29 64.979 55.615 64.578 55.615zM64.578 45.946h-1.57c-0.401 0-0.726-0.324-0.726-0.725s0.325-0.726 0.726-0.726h1.57c0.4 0 0.726 0.325 0.726 0.726S64.979 45.946 64.578 45.946zM64.578 43.53h-1.57c-0.401 0-0.726-0.325-0.726-0.725 0-0.401 0.325-0.726 0.726-0.726h1.57c0.4 0 0.726 0.324 0.726 0.726C65.304 43.205 64.979 43.53 64.578 43.53zM64.578 41.476h-1.57c-0.401 0-0.726-0.325-0.726-0.726 0-0.4 0.325-0.725 0.726-0.725h1.57c0.4 0 0.726 0.324 0.726 0.725C65.304 41.151 64.979 41.476 64.578 41.476zM64.578 37.125h-1.57c-0.401 0-0.726-0.325-0.726-0.725s0.325-0.725 0.726-0.725h1.57c0.4 0 0.726 0.325 0.726 0.725S64.979 37.125 64.578 37.125zM64.578 35.191h-1.57c-0.401 0-0.726-0.325-0.726-0.725s0.325-0.725 0.726-0.725h1.57c0.4 0 0.726 0.325 0.726 0.725S64.979 35.191 64.578 35.191z" fill="#e94443" data-fill-palette-color="accent"></path></svg></g></svg></g><g></g></svg></g><defs></defs></svg><rect width="395.5199999999999" height="309.9294830604664" fill="none" stroke="none" visibility="hidden"></rect></g></svg></g></svg>